<?xml version="1.0" standalone="no"?>
<!DOCTYPE svg PUBLIC "-//W3C//DTD SVG 20010904//EN"
 "http://www.w3.org/TR/2001/REC-SVG-20010904/DTD/svg10.dtd">
<svg version="1.0" xmlns="http://www.w3.org/2000/svg"
 width="1920.000000pt" height="1920.000000pt" viewBox="0 0 1920.000000 1920.000000"
 preserveAspectRatio="xMidYMid meet">
<metadata>
Created by potrace 1.14, written by Peter Selinger 2001-2017
</metadata>
<g transform="translate(0.000000,1920.000000) scale(0.100000,-0.100000)"
fill="#000000" stroke="none">
<path d="M5750 14478 c-52 -15 -86 -43 -109 -91 l-21 -43 0 -2927 c0 -1893 -3
-2927 -10 -2927 -5 0 -267 127 -581 281 -547 269 -574 281 -619 277 -89 -9
-147 -78 -137 -164 10 -89 -1 -82 701 -429 l646 -319 0 -128 0 -127 -472 -3
-473 -3 -39 -24 c-77 -48 -95 -154 -38 -223 49 -58 48 -58 557 -58 l465 0 0
-129 0 -130 -652 -324 c-646 -320 -653 -324 -677 -366 -56 -102 17 -225 133
-224 33 1 129 44 481 218 528 261 707 347 712 342 2 -2 2 -199 1 -438 l-3
-434 -86 130 c-47 72 -106 165 -130 207 -24 43 -48 78 -53 78 -15 0 -256 -122
-256 -129 0 -14 138 -239 230 -375 114 -170 284 -390 333 -433 79 -69 192 -45
245 52 16 27 17 176 23 1765 4 1220 9 1763 17 1830 64 521 172 894 376 1300
185 368 400 664 691 955 607 607 1367 970 2223 1060 192 21 552 21 744 0 854
-90 1614 -452 2219 -1055 301 -300 506 -585 698 -968 196 -393 312 -789 367
-1254 16 -128 18 -323 21 -1863 2 -946 5 -1734 8 -1752 7 -41 70 -98 118 -107
59 -11 111 9 154 58 65 74 196 244 286 373 87 125 263 411 256 417 -9 8 -249
126 -256 126 -5 0 -19 -19 -32 -43 -41 -74 -180 -291 -206 -322 l-24 -30 -1
428 c0 235 4 427 8 427 5 0 260 -124 568 -276 307 -152 572 -280 588 -285 97
-28 201 72 182 175 -14 76 -22 80 -703 417 l-643 318 0 130 0 130 478 3 479 3
35 27 c51 39 75 105 59 160 -16 52 -57 93 -107 107 -25 7 -196 11 -491 11
l-453 0 0 128 0 129 653 324 652 324 23 45 c55 106 -15 220 -133 220 -29 0
-155 -58 -544 -251 -278 -138 -539 -266 -578 -285 l-73 -33 0 1589 c0 875 2
1590 5 1590 7 0 104 -147 187 -284 311 -517 533 -1125 627 -1716 16 -98 51
-386 51 -415 0 -3 63 26 140 65 l141 70 -6 53 c-72 619 -226 1156 -490 1702
-147 305 -357 644 -559 902 l-96 122 0 1092 c0 1087 0 1093 -21 1136 -37 77
-119 113 -206 92 -45 -11 -78 -42 -610 -572 l-562 -561 -58 33 c-207 114 -485
244 -690 322 -1224 466 -2618 446 -3817 -56 -148 -61 -450 -208 -556 -269
l-45 -26 -560 559 c-526 524 -563 559 -607 570 -53 13 -51 13 -98 -1z m1850
-2158 c0 -4 -57 -42 -126 -85 -69 -44 -182 -122 -251 -173 l-126 -94 -267 266
c-248 248 -269 266 -302 266 -20 0 -46 -9 -60 -20 l-25 -19 -5 -588 -5 -588
-81 -113 c-139 -192 -278 -432 -368 -632 -25 -58 -50 -109 -55 -114 -5 -5 -9
790 -9 1785 l0 1794 840 -840 c462 -462 840 -842 840 -845z m5678 -1008 l-3
-897 -86 176 c-122 249 -250 461 -391 648 l-48 64 0 564 c0 410 -3 570 -12
586 -17 33 -39 46 -78 47 -32 0 -54 -19 -295 -260 -143 -143 -264 -260 -269
-260 -5 0 -57 36 -115 79 -87 65 -239 167 -369 248 -22 13 1 37 820 855 l843
841 3 -896 c1 -494 1 -1301 0 -1795z m-3298 2417 c509 -40 1022 -163 1490
-358 135 -57 490 -230 490 -240 0 -3 -148 -154 -329 -335 l-328 -328 -79 35
c-368 165 -754 271 -1184 324 -109 13 -219 17 -440 17 -316 0 -455 -11 -720
-60 -283 -52 -593 -146 -855 -259 l-129 -56 -334 334 -335 335 204 100 c807
397 1658 561 2549 491z"/>
<path d="M5525 12053 c-326 -414 -616 -941 -797 -1452 -78 -218 -156 -507
-202 -746 -24 -123 -66 -415 -66 -456 0 -14 34 -36 139 -89 l139 -69 7 67 c80
835 336 1567 792 2259 l73 112 -2 238 -3 238 -80 -102z"/>
<path d="M7530 9576 c-111 -25 -202 -96 -249 -196 -23 -48 -26 -68 -26 -155 0
-95 2 -103 34 -163 152 -281 560 -241 656 64 79 251 -157 507 -415 450z"/>
<path d="M11517 9579 c-100 -23 -206 -111 -249 -206 -18 -38 -22 -67 -23 -143
0 -82 3 -102 26 -150 39 -82 90 -135 167 -172 60 -30 75 -33 157 -33 77 0 98
4 145 26 78 37 131 87 171 161 32 60 34 68 34 163 0 88 -3 106 -27 155 -52
106 -147 178 -263 199 -67 13 -85 13 -138 0z"/>
<path d="M9350 8331 c-101 -20 -159 -134 -114 -224 9 -18 57 -73 106 -124 l91
-91 -12 -63 c-49 -249 -207 -506 -386 -629 -202 -139 -432 -165 -669 -76 -84
32 -126 33 -177 4 -41 -23 -79 -85 -79 -129 0 -44 42 -112 84 -135 44 -25 171
-66 261 -85 100 -22 305 -17 410 10 104 26 245 90 335 151 133 90 284 257 363
401 18 32 34 59 37 59 3 0 19 -27 37 -59 79 -144 230 -311 363 -401 90 -61
231 -125 335 -151 71 -18 118 -23 220 -23 141 0 201 9 340 55 121 39 152 60
177 116 33 75 12 140 -62 191 -44 30 -90 28 -186 -7 -259 -94 -506 -51 -719
126 -144 118 -278 355 -322 567 l-18 86 87 88 c47 48 93 101 102 119 44 87
-11 197 -110 222 -47 12 -436 13 -494 2z"/>
</g>
</svg>
